PathFileType	4	(X/Y/Z)	OpenSim_Sub02_CSBaseline_Accel.trc
DataRate	CameraRate	NumFrames	NumMarkers	Units	OrigDataRate	OrigDataStartFrame	OrigNumFrames
100	100	20	8	m	100	1765	7057
Frame#	Time	torso_imu_offset_imu	pelvis_imu_offset_imu	tibia_r_imu_offset_imu	femur_r_imu_offset_imu	tibia_l_imu_offset_imu	femur_l_imu_offset_imu	toes_r_imu_offset_imu	toes_l_imu_offset_imu
				X1	Y1	Z1	X2	Y2	Z2	X3	Y3	Z3	X4	Y4	Z4	X5	Y5	Z5	X6	Y6	Z6	X7	Y7	Z7	X8		Y8	Z8	

1765	17.64000000	10.40395968	-0.42372673	7.67790665	11.16453152	-0.27413130	3.01679726	11.57119535	2.82196320	1.81879695	10.81416338	-1.15165462	-0.42538584	13.33287055	6.38483255	-0.17305193	12.35101325	1.74274873	0.56281470	5.01822654	0.07408849	9.61514444	2.46806813	-9.25491212	9.23205900
1766	17.65000000	10.91409624	-0.14011349	8.00685411	11.59068097	-0.66448361	3.53071341	11.61647659	2.52336861	2.32547519	10.83672988	-1.18517504	-0.33763056	19.58430073	14.11809582	7.43761474	14.42578088	0.53845905	0.54236970	4.43025644	-0.11915804	9.85899535	15.51695851	-1.67335359	21.03686238
1767	17.66000000	11.09355301	0.09253314	8.23307982	12.50496965	-1.37091466	4.16867929	11.44780876	2.52237450	2.76711967	10.69231699	-1.62776846	-0.40556091	14.79352854	11.02580179	9.27484747	18.51663474	-0.14899962	0.85752948	4.60684008	0.18856561	9.96329451	13.24491304	4.97551477	17.63592153
1768	17.67000000	11.60061623	0.07765814	8.33367355	13.41233800	-2.45738659	4.57551940	11.63450789	2.57377919	2.90841475	10.69671369	-1.78470425	-0.52497517	13.70663666	6.33321682	6.43120325	18.35285697	0.43561336	0.60438640	4.78169378	0.51867670	9.83514717	11.02903151	9.77742059	16.88267975
1769	17.68000000	12.54020595	0.27067964	8.79567084	13.58391598	-3.05926500	4.64580648	12.25325358	2.45803490	3.20107174	11.11634545	-1.40569735	-0.63892605	16.68571530	5.74712420	5.45807913	15.49146038	2.72700250	0.09710362	4.65323692	0.28980591	10.01742722	15.87867801	4.40360942	19.37526940
1770	17.69000000	12.94242183	0.64800673	9.28798390	12.62376134	-2.66784776	4.24690588	12.86391725	2.29641763	3.06650413	11.38190344	-1.13323516	-0.48634568	15.23172571	5.78662300	5.18485880	11.74756842	3.71629909	-0.51589081	4.46915339	-0.65666045	10.28093619	9.80066721	-7.53801855	13.21344741
1771	17.70000000	11.94932060	0.77738497	9.36115279	11.20942188	-1.19565842	3.59883796	13.30881592	2.10066854	2.80871527	11.54897446	-0.50564829	-0.09114990	11.03965645	3.01882729	2.74802583	8.93494114	2.60298814	-1.77586175	5.00872333	-0.75769081	9.89725081	5.92688886	-3.68632828	12.08287202
1772	17.71000000	10.15212787	0.76778685	9.22357867	10.27633881	0.58684293	3.59646669	13.04282292	1.73774547	2.65482648	11.84000701	0.24549284	0.34730551	7.02000479	-2.16628617	-1.34941578	7.11002267	0.07661751	-2.51411466	4.98443845	-1.37950509	9.58679695	4.79757623	1.32470821	11.98476689
1773	17.72000000	8.87064302	0.81760340	8.90185741	9.74699529	2.00430947	3.77327981	11.84296714	1.10365149	2.24140511	11.59206007	0.78391274	0.76734677	6.20971100	-5.92441142	-3.77778112	6.50548219	-2.53745165	-2.82352643	4.85889201	-2.11569637	8.90942224	3.68061176	2.73132014	12.45605213
1774	17.73000000	8.26636386	0.96668289	8.42838314	9.16355557	2.93843248	4.07842453	10.76441744	0.94921348	1.75430103	10.78879225	1.40608939	1.01188741	6.30409902	-8.48575755	-5.25050500	6.22222037	-4.13483605	-3.00782399	5.37533205	-0.68724535	7.93016447	3.29600219	3.31725745	11.68854750
1775	17.74000000	7.62889244	1.01585524	7.97492585	8.58740718	3.46007584	4.49047902	10.19447910	1.79440392	0.58876300	10.08132261	2.15652690	1.04644212	6.75809707	-9.67583233	-6.70532816	7.35083888	-4.59527295	-2.57060234	6.51606019	1.14787324	8.24361155	3.74460250	2.47483281	11.74974841
1776	17.75000000	6.82937086	1.01034073	7.36543197	7.96622467	3.35494533	4.77425077	10.06396030	3.33696626	0.76667896	9.64940217	2.70344667	1.29900453	7.89495586	-10.06962862	-7.79817012	7.57923745	-4.85776050	-1.90184278	8.01861639	-0.96632378	7.86367160	3.99054000	0.86921330	11.63865812
1777	17.76000000	6.06570808	0.94929338	6.80757620	7.35038038	2.74159779	4.91195459	10.26731136	4.90786949	1.92771302	9.47478769	2.91679254	1.58484362	9.03655748	-8.68051658	-6.38525332	7.88398810	-3.80848922	-1.55356156	9.71769108	-0.83503426	7.49725102	3.18817798	0.72215547	11.86718465
1778	17.77000000	5.58243734	0.87025782	6.29821989	6.94113544	1.62042422	5.00900465	10.41001626	6.43081857	2.70807433	9.42744017	2.79721142	1.79407763	9.97891273	-5.05290469	-3.39533437	7.97504901	-2.29765831	-2.48558649	14.09040336	1.14778536	8.20734648	3.09876724	0.95544486	11.59887634
1779	17.78000000	5.48928339	0.76889301	5.91414979	6.89530189	0.27836385	5.21196059	9.95693818	7.81313338	3.13258193	9.68264092	2.26919228	2.02564072	10.50033835	-0.92037318	-1.31842203	7.32491012	-0.81783224	-3.43753569	15.15551458	1.91909173	7.77644969	3.54247248	0.82898863	11.66083968
1780	17.79000000	5.87943490	0.63347487	5.70099925	7.22879589	-0.86809098	5.29683406	9.15249302	8.77496688	3.06417964	10.24464366	1.19470938	2.35080422	9.98456689	3.60111864	1.33694668	7.59649977	-0.03416685	-4.04612413	15.31968275	2.52792237	7.14891306	3.43031445	0.86345031	11.90407554
1781	17.80000000	6.63511184	0.51431001	5.68691194	7.96133212	-1.75935075	5.15220027	8.35022376	9.28530584	2.37454384	10.92388964	-0.23347073	2.49296219	10.43665172	6.59302547	1.58366703	9.49817188	0.81031139	-4.43320845	13.69911209	-0.05521166	7.44292525	3.19197941	0.79857468	11.81780509
1782	17.81000000	7.72327066	0.46782907	5.92398504	8.71077479	-2.43181196	4.86190116	7.64244931	9.38599681	1.76386105	11.24489695	-1.41619413	2.50581724	10.66450434	6.97488520	1.40546228	9.33415269	0.63297220	-3.46723648	12.13342890	-0.64244470	8.34558306	2.91734973	0.91786488	12.03337365
1783	17.82000000	8.83217908	0.47412122	6.25737899	9.16281151	-2.79017595	4.56646467	6.79057522	9.04564462	1.81134005	11.22107877	-2.09466755	2.41946483	10.21760576	6.04953587	0.69852121	8.78909856	-0.12243075	-2.20501541	10.18601573	-0.20278022	7.96923450	2.95343006	1.13525885	11.73291061
1784	17.83000000	9.49709479	0.45874143	6.57436020	9.24831115	-2.75718661	4.37354904	5.73490971	8.52126449	2.53630177	11.04615999	-2.12475569	2.14563912	9.85453291	4.54051269	-0.00863192	10.36792879	-0.49728452	-1.93039879	8.88445876	-1.16557587	7.14154109	3.41415761	1.53438541	11.78834457
